<mxfile host="app.diagrams.net" modified="2022-07-12T07:47:12.891Z" agent="5.0 (Windows NT 10.0; WOW64) AppleWebKit/537.36 (KHTML, like Gecko) Chrome/103.0.0.0 Safari/537.36" etag="-Z8r4J51GB0buDRG1He7" version="20.0.4" type="github">
  <diagram id="C5RBs43oDa-KdzZeNtuy" name="Page-1">
    <mxGraphModel dx="1422" dy="794" grid="1" gridSize="10" guides="1" tooltips="1" connect="1" arrows="1" fold="1" page="1" pageScale="1" pageWidth="827" pageHeight="1169" math="0" shadow="0">
      <root>
        <mxCell id="WIyWlLk6GJQsqaUBKTNV-0" />
        <mxCell id="WIyWlLk6GJQsqaUBKTNV-1" parent="WIyWlLk6GJQsqaUBKTNV-0" />
        <mxCell id="WIyWlLk6GJQsqaUBKTNV-2" value="" style="rounded=0;html=1;jettySize=auto;orthogonalLoop=1;fontSize=11;endArrow=block;endFill=0;endSize=8;strokeWidth=1;shadow=0;labelBackgroundColor=none;edgeStyle=orthogonalEdgeStyle;" parent="WIyWlLk6GJQsqaUBKTNV-1" source="WIyWlLk6GJQsqaUBKTNV-3" target="WIyWlLk6GJQsqaUBKTNV-6" edge="1">
          <mxGeometry relative="1" as="geometry" />
        </mxCell>
        <mxCell id="WIyWlLk6GJQsqaUBKTNV-3" value="Датчик из файла" style="rounded=1;whiteSpace=wrap;html=1;fontSize=12;glass=0;strokeWidth=1;shadow=0;" parent="WIyWlLk6GJQsqaUBKTNV-1" vertex="1">
          <mxGeometry x="195" y="190" width="120" height="40" as="geometry" />
        </mxCell>
        <mxCell id="cj7EAJSxcqA0SrIJR4qw-23" value="Да" style="edgeStyle=orthogonalEdgeStyle;rounded=0;orthogonalLoop=1;jettySize=auto;html=1;exitX=0.5;exitY=1;exitDx=0;exitDy=0;entryX=0.5;entryY=0;entryDx=0;entryDy=0;" edge="1" parent="WIyWlLk6GJQsqaUBKTNV-1" source="WIyWlLk6GJQsqaUBKTNV-6" target="cj7EAJSxcqA0SrIJR4qw-22">
          <mxGeometry relative="1" as="geometry" />
        </mxCell>
        <mxCell id="cj7EAJSxcqA0SrIJR4qw-24" value="Нет" style="edgeStyle=orthogonalEdgeStyle;rounded=0;orthogonalLoop=1;jettySize=auto;html=1;exitX=1;exitY=0.5;exitDx=0;exitDy=0;entryX=0;entryY=0.5;entryDx=0;entryDy=0;" edge="1" parent="WIyWlLk6GJQsqaUBKTNV-1" source="WIyWlLk6GJQsqaUBKTNV-6" target="cj7EAJSxcqA0SrIJR4qw-0">
          <mxGeometry relative="1" as="geometry" />
        </mxCell>
        <mxCell id="WIyWlLk6GJQsqaUBKTNV-6" value="Датчик существует в БД" style="rhombus;whiteSpace=wrap;html=1;shadow=0;fontFamily=Helvetica;fontSize=12;align=center;strokeWidth=1;spacing=6;spacingTop=-4;" parent="WIyWlLk6GJQsqaUBKTNV-1" vertex="1">
          <mxGeometry x="160" y="280" width="190" height="80" as="geometry" />
        </mxCell>
        <mxCell id="cj7EAJSxcqA0SrIJR4qw-3" value="Да" style="edgeStyle=orthogonalEdgeStyle;rounded=0;orthogonalLoop=1;jettySize=auto;html=1;exitX=0.5;exitY=1;exitDx=0;exitDy=0;entryX=0.5;entryY=0;entryDx=0;entryDy=0;" edge="1" parent="WIyWlLk6GJQsqaUBKTNV-1" source="cj7EAJSxcqA0SrIJR4qw-0" target="cj7EAJSxcqA0SrIJR4qw-16">
          <mxGeometry relative="1" as="geometry">
            <mxPoint x="740" y="390" as="targetPoint" />
          </mxGeometry>
        </mxCell>
        <mxCell id="cj7EAJSxcqA0SrIJR4qw-5" value="Нет" style="edgeStyle=orthogonalEdgeStyle;rounded=0;orthogonalLoop=1;jettySize=auto;html=1;exitX=1;exitY=0.5;exitDx=0;exitDy=0;entryX=0.5;entryY=0;entryDx=0;entryDy=0;" edge="1" parent="WIyWlLk6GJQsqaUBKTNV-1" source="cj7EAJSxcqA0SrIJR4qw-0" target="cj7EAJSxcqA0SrIJR4qw-6">
          <mxGeometry relative="1" as="geometry">
            <mxPoint x="860" y="400" as="targetPoint" />
          </mxGeometry>
        </mxCell>
        <mxCell id="cj7EAJSxcqA0SrIJR4qw-0" value="Помещение &lt;br&gt;существует в БД" style="rhombus;whiteSpace=wrap;html=1;shadow=0;fontFamily=Helvetica;fontSize=12;align=center;strokeWidth=1;spacing=6;spacingTop=-4;" vertex="1" parent="WIyWlLk6GJQsqaUBKTNV-1">
          <mxGeometry x="620" y="280" width="200" height="80" as="geometry" />
        </mxCell>
        <mxCell id="cj7EAJSxcqA0SrIJR4qw-10" style="edgeStyle=orthogonalEdgeStyle;rounded=0;orthogonalLoop=1;jettySize=auto;html=1;exitX=0.5;exitY=1;exitDx=0;exitDy=0;entryX=0.5;entryY=0;entryDx=0;entryDy=0;" edge="1" parent="WIyWlLk6GJQsqaUBKTNV-1" source="cj7EAJSxcqA0SrIJR4qw-6" target="cj7EAJSxcqA0SrIJR4qw-7">
          <mxGeometry relative="1" as="geometry" />
        </mxCell>
        <mxCell id="cj7EAJSxcqA0SrIJR4qw-6" value="Создаём Параметр" style="rounded=1;whiteSpace=wrap;html=1;fontSize=12;glass=0;strokeWidth=1;shadow=0;" vertex="1" parent="WIyWlLk6GJQsqaUBKTNV-1">
          <mxGeometry x="800" y="400" width="120" height="40" as="geometry" />
        </mxCell>
        <mxCell id="cj7EAJSxcqA0SrIJR4qw-11" style="edgeStyle=orthogonalEdgeStyle;rounded=0;orthogonalLoop=1;jettySize=auto;html=1;exitX=0.5;exitY=1;exitDx=0;exitDy=0;entryX=0.5;entryY=0;entryDx=0;entryDy=0;" edge="1" parent="WIyWlLk6GJQsqaUBKTNV-1" source="cj7EAJSxcqA0SrIJR4qw-7" target="cj7EAJSxcqA0SrIJR4qw-8">
          <mxGeometry relative="1" as="geometry" />
        </mxCell>
        <mxCell id="cj7EAJSxcqA0SrIJR4qw-7" value="Создаём Канал" style="rounded=1;whiteSpace=wrap;html=1;fontSize=12;glass=0;strokeWidth=1;shadow=0;" vertex="1" parent="WIyWlLk6GJQsqaUBKTNV-1">
          <mxGeometry x="800" y="460" width="120" height="40" as="geometry" />
        </mxCell>
        <mxCell id="cj7EAJSxcqA0SrIJR4qw-27" style="edgeStyle=orthogonalEdgeStyle;rounded=0;orthogonalLoop=1;jettySize=auto;html=1;exitX=0.5;exitY=1;exitDx=0;exitDy=0;entryX=0.5;entryY=0;entryDx=0;entryDy=0;" edge="1" parent="WIyWlLk6GJQsqaUBKTNV-1" source="cj7EAJSxcqA0SrIJR4qw-8" target="cj7EAJSxcqA0SrIJR4qw-25">
          <mxGeometry relative="1" as="geometry" />
        </mxCell>
        <mxCell id="cj7EAJSxcqA0SrIJR4qw-8" value="Создаём Помещение" style="rounded=1;whiteSpace=wrap;html=1;fontSize=12;glass=0;strokeWidth=1;shadow=0;" vertex="1" parent="WIyWlLk6GJQsqaUBKTNV-1">
          <mxGeometry x="800" y="525" width="120" height="40" as="geometry" />
        </mxCell>
        <mxCell id="cj7EAJSxcqA0SrIJR4qw-20" style="edgeStyle=orthogonalEdgeStyle;rounded=0;orthogonalLoop=1;jettySize=auto;html=1;exitX=0.5;exitY=1;exitDx=0;exitDy=0;entryX=0.5;entryY=0;entryDx=0;entryDy=0;" edge="1" parent="WIyWlLk6GJQsqaUBKTNV-1" source="cj7EAJSxcqA0SrIJR4qw-12" target="cj7EAJSxcqA0SrIJR4qw-15">
          <mxGeometry relative="1" as="geometry" />
        </mxCell>
        <mxCell id="cj7EAJSxcqA0SrIJR4qw-12" value="Создаём MeshChannels для существующих Channels" style="rounded=1;whiteSpace=wrap;html=1;fontSize=12;glass=0;strokeWidth=1;shadow=0;" vertex="1" parent="WIyWlLk6GJQsqaUBKTNV-1">
          <mxGeometry x="660" y="500" width="120" height="80" as="geometry" />
        </mxCell>
        <mxCell id="cj7EAJSxcqA0SrIJR4qw-21" style="edgeStyle=orthogonalEdgeStyle;rounded=0;orthogonalLoop=1;jettySize=auto;html=1;exitX=0.5;exitY=1;exitDx=0;exitDy=0;entryX=0.5;entryY=0;entryDx=0;entryDy=0;" edge="1" parent="WIyWlLk6GJQsqaUBKTNV-1" source="cj7EAJSxcqA0SrIJR4qw-15" target="cj7EAJSxcqA0SrIJR4qw-18">
          <mxGeometry relative="1" as="geometry" />
        </mxCell>
        <mxCell id="cj7EAJSxcqA0SrIJR4qw-15" value="Удаляем старый MeshDevice" style="rounded=1;whiteSpace=wrap;html=1;fontSize=12;glass=0;strokeWidth=1;shadow=0;" vertex="1" parent="WIyWlLk6GJQsqaUBKTNV-1">
          <mxGeometry x="660" y="600" width="120" height="80" as="geometry" />
        </mxCell>
        <mxCell id="cj7EAJSxcqA0SrIJR4qw-19" style="edgeStyle=orthogonalEdgeStyle;rounded=0;orthogonalLoop=1;jettySize=auto;html=1;exitX=0.5;exitY=1;exitDx=0;exitDy=0;entryX=0.5;entryY=0;entryDx=0;entryDy=0;" edge="1" parent="WIyWlLk6GJQsqaUBKTNV-1" source="cj7EAJSxcqA0SrIJR4qw-16" target="cj7EAJSxcqA0SrIJR4qw-12">
          <mxGeometry relative="1" as="geometry" />
        </mxCell>
        <mxCell id="cj7EAJSxcqA0SrIJR4qw-16" value="Создаём MeshDevice для существующего Room" style="rounded=1;whiteSpace=wrap;html=1;fontSize=12;glass=0;strokeWidth=1;shadow=0;" vertex="1" parent="WIyWlLk6GJQsqaUBKTNV-1">
          <mxGeometry x="660" y="400" width="120" height="80" as="geometry" />
        </mxCell>
        <mxCell id="cj7EAJSxcqA0SrIJR4qw-30" style="edgeStyle=orthogonalEdgeStyle;rounded=0;orthogonalLoop=1;jettySize=auto;html=1;entryX=0.5;entryY=0;entryDx=0;entryDy=0;" edge="1" parent="WIyWlLk6GJQsqaUBKTNV-1" source="cj7EAJSxcqA0SrIJR4qw-18" target="cj7EAJSxcqA0SrIJR4qw-29">
          <mxGeometry relative="1" as="geometry">
            <Array as="points">
              <mxPoint x="720" y="950" />
              <mxPoint x="354" y="950" />
            </Array>
          </mxGeometry>
        </mxCell>
        <mxCell id="cj7EAJSxcqA0SrIJR4qw-18" value="Удаляем старые&amp;nbsp; MeshChannels" style="rounded=1;whiteSpace=wrap;html=1;fontSize=12;glass=0;strokeWidth=1;shadow=0;" vertex="1" parent="WIyWlLk6GJQsqaUBKTNV-1">
          <mxGeometry x="660" y="700" width="120" height="80" as="geometry" />
        </mxCell>
        <mxCell id="cj7EAJSxcqA0SrIJR4qw-32" value="Да" style="edgeStyle=orthogonalEdgeStyle;rounded=0;orthogonalLoop=1;jettySize=auto;html=1;exitX=0.5;exitY=1;exitDx=0;exitDy=0;entryX=0;entryY=0.5;entryDx=0;entryDy=0;" edge="1" parent="WIyWlLk6GJQsqaUBKTNV-1" source="cj7EAJSxcqA0SrIJR4qw-22" target="cj7EAJSxcqA0SrIJR4qw-29">
          <mxGeometry relative="1" as="geometry" />
        </mxCell>
        <mxCell id="cj7EAJSxcqA0SrIJR4qw-34" value="Нет" style="edgeStyle=orthogonalEdgeStyle;rounded=0;orthogonalLoop=1;jettySize=auto;html=1;exitX=1;exitY=0.5;exitDx=0;exitDy=0;entryX=0.5;entryY=0;entryDx=0;entryDy=0;" edge="1" parent="WIyWlLk6GJQsqaUBKTNV-1" source="cj7EAJSxcqA0SrIJR4qw-22" target="cj7EAJSxcqA0SrIJR4qw-36">
          <mxGeometry relative="1" as="geometry">
            <mxPoint x="460" y="505" as="targetPoint" />
          </mxGeometry>
        </mxCell>
        <mxCell id="cj7EAJSxcqA0SrIJR4qw-22" value="Помещение &lt;br&gt;существует в БД" style="rhombus;whiteSpace=wrap;html=1;shadow=0;fontFamily=Helvetica;fontSize=12;align=center;strokeWidth=1;spacing=6;spacingTop=-4;" vertex="1" parent="WIyWlLk6GJQsqaUBKTNV-1">
          <mxGeometry x="155" y="400" width="200" height="80" as="geometry" />
        </mxCell>
        <mxCell id="cj7EAJSxcqA0SrIJR4qw-28" style="edgeStyle=orthogonalEdgeStyle;rounded=0;orthogonalLoop=1;jettySize=auto;html=1;exitX=0.5;exitY=1;exitDx=0;exitDy=0;entryX=0.5;entryY=0;entryDx=0;entryDy=0;" edge="1" parent="WIyWlLk6GJQsqaUBKTNV-1" source="cj7EAJSxcqA0SrIJR4qw-25" target="cj7EAJSxcqA0SrIJR4qw-26">
          <mxGeometry relative="1" as="geometry" />
        </mxCell>
        <mxCell id="cj7EAJSxcqA0SrIJR4qw-25" value="Создаём MeshDevice" style="rounded=1;whiteSpace=wrap;html=1;fontSize=12;glass=0;strokeWidth=1;shadow=0;" vertex="1" parent="WIyWlLk6GJQsqaUBKTNV-1">
          <mxGeometry x="800" y="580" width="120" height="50" as="geometry" />
        </mxCell>
        <mxCell id="cj7EAJSxcqA0SrIJR4qw-31" style="edgeStyle=orthogonalEdgeStyle;rounded=0;orthogonalLoop=1;jettySize=auto;html=1;entryX=1;entryY=0.5;entryDx=0;entryDy=0;" edge="1" parent="WIyWlLk6GJQsqaUBKTNV-1" source="cj7EAJSxcqA0SrIJR4qw-26" target="cj7EAJSxcqA0SrIJR4qw-29">
          <mxGeometry relative="1" as="geometry">
            <Array as="points">
              <mxPoint x="860" y="1020" />
            </Array>
          </mxGeometry>
        </mxCell>
        <mxCell id="cj7EAJSxcqA0SrIJR4qw-26" value="Создаём MeshChannels" style="rounded=1;whiteSpace=wrap;html=1;fontSize=12;glass=0;strokeWidth=1;shadow=0;" vertex="1" parent="WIyWlLk6GJQsqaUBKTNV-1">
          <mxGeometry x="800" y="650" width="120" height="50" as="geometry" />
        </mxCell>
        <mxCell id="cj7EAJSxcqA0SrIJR4qw-29" value="Завершение" style="ellipse;whiteSpace=wrap;html=1;" vertex="1" parent="WIyWlLk6GJQsqaUBKTNV-1">
          <mxGeometry x="294" y="980" width="120" height="80" as="geometry" />
        </mxCell>
        <mxCell id="cj7EAJSxcqA0SrIJR4qw-35" style="edgeStyle=orthogonalEdgeStyle;rounded=0;orthogonalLoop=1;jettySize=auto;html=1;exitX=0.5;exitY=1;exitDx=0;exitDy=0;entryX=0.5;entryY=0;entryDx=0;entryDy=0;" edge="1" parent="WIyWlLk6GJQsqaUBKTNV-1" source="cj7EAJSxcqA0SrIJR4qw-36" target="cj7EAJSxcqA0SrIJR4qw-38">
          <mxGeometry relative="1" as="geometry" />
        </mxCell>
        <mxCell id="cj7EAJSxcqA0SrIJR4qw-36" value="Создаём Параметр" style="rounded=1;whiteSpace=wrap;html=1;fontSize=12;glass=0;strokeWidth=1;shadow=0;" vertex="1" parent="WIyWlLk6GJQsqaUBKTNV-1">
          <mxGeometry x="400" y="510" width="120" height="40" as="geometry" />
        </mxCell>
        <mxCell id="cj7EAJSxcqA0SrIJR4qw-37" style="edgeStyle=orthogonalEdgeStyle;rounded=0;orthogonalLoop=1;jettySize=auto;html=1;exitX=0.5;exitY=1;exitDx=0;exitDy=0;entryX=0.5;entryY=0;entryDx=0;entryDy=0;" edge="1" parent="WIyWlLk6GJQsqaUBKTNV-1" source="cj7EAJSxcqA0SrIJR4qw-38" target="cj7EAJSxcqA0SrIJR4qw-40">
          <mxGeometry relative="1" as="geometry" />
        </mxCell>
        <mxCell id="cj7EAJSxcqA0SrIJR4qw-38" value="Создаём Канал" style="rounded=1;whiteSpace=wrap;html=1;fontSize=12;glass=0;strokeWidth=1;shadow=0;" vertex="1" parent="WIyWlLk6GJQsqaUBKTNV-1">
          <mxGeometry x="400" y="570" width="120" height="40" as="geometry" />
        </mxCell>
        <mxCell id="cj7EAJSxcqA0SrIJR4qw-39" style="edgeStyle=orthogonalEdgeStyle;rounded=0;orthogonalLoop=1;jettySize=auto;html=1;exitX=0.5;exitY=1;exitDx=0;exitDy=0;entryX=0.5;entryY=0;entryDx=0;entryDy=0;" edge="1" parent="WIyWlLk6GJQsqaUBKTNV-1" source="cj7EAJSxcqA0SrIJR4qw-40">
          <mxGeometry relative="1" as="geometry">
            <mxPoint x="460" y="690" as="targetPoint" />
          </mxGeometry>
        </mxCell>
        <mxCell id="cj7EAJSxcqA0SrIJR4qw-40" value="Создаём Помещение" style="rounded=1;whiteSpace=wrap;html=1;fontSize=12;glass=0;strokeWidth=1;shadow=0;" vertex="1" parent="WIyWlLk6GJQsqaUBKTNV-1">
          <mxGeometry x="400" y="635" width="120" height="40" as="geometry" />
        </mxCell>
      </root>
    </mxGraphModel>
  </diagram>
</mxfile>
